<svg viewBox="0 0 200 60" xmlns="http://www.w3.org/2000/svg" width="200" height="60">
  <defs>
    <linearGradient id="logoGradient" x1="0%" y1="0%" x2="100%" y2="100%">
      <stop offset="0%" style="stop-color:#34d399;stop-opacity:1" />
      <stop offset="50%" style="stop-color:#3b82f6;stop-opacity:1" />
      <stop offset="100%" style="stop-color:#8b5cf6;stop-opacity:1" />
    </linearGradient>
    <filter id="glow">
      <feGaussianBlur stdDeviation="2" result="coloredBlur"/>
      <feMerge>
        <feMergeNode in="coloredBlur"/>
        <feMergeNode in="SourceGraphic"/>
      </feMerge>
    </filter>
  </defs>
  
  <!-- Main digital rectangle -->
  <rect x="10" y="10" width="180" height="40" rx="4" ry="4" fill="none" stroke="url(#logoGradient)" stroke-width="2" filter="url(#glow)"/>
  
  <!-- Inner digital elements -->
  <rect x="18" y="18" width="30" height="24" rx="2" ry="2" fill="none" stroke="#34d399" stroke-width="1.5" opacity="0.7"/>
  <rect x="54" y="18" width="30" height="24" rx="2" ry="2" fill="none" stroke="#3b82f6" stroke-width="1.5" opacity="0.7"/>
  <rect x="90" y="18" width="30" height="24" rx="2" ry="2" fill="none" stroke="#8b5cf6" stroke-width="1.5" opacity="0.7"/>
  <rect x="126" y="18" width="54" height="24" rx="2" ry="2" fill="none" stroke="#34d399" stroke-width="1.5" opacity="0.7"/>
  
  <!-- Digital pixels/dots -->
  <circle cx="25" cy="25" r="1.5" fill="#34d399" opacity="0.8"/>
  <circle cx="35" cy="30" r="1.5" fill="#34d399" opacity="0.6"/>
  <circle cx="61" cy="26" r="1.5" fill="#3b82f6" opacity="0.8"/>
  <circle cx="71" cy="32" r="1.5" fill="#3b82f6" opacity="0.6"/>
  <circle cx="97" cy="25" r="1.5" fill="#8b5cf6" opacity="0.8"/>
  <circle cx="107" cy="31" r="1.5" fill="#8b5cf6" opacity="0.6"/>
  <circle cx="133" cy="27" r="1.5" fill="#34d399" opacity="0.8"/>
  <circle cx="151" cy="30" r="1.5" fill="#34d399" opacity="0.6"/>
  <circle cx="165" cy="25" r="1.5" fill="#3b82f6" opacity="0.8"/>
</svg>
